<?xml version="1.0" encoding="utf-8"?>
<!-- Generator: Adobe Illustrator 19.0.0, SVG Export Plug-In . SVG Version: 6.00 Build 0)  -->
<svg version="1.1" id="Layer_1" xmlns="http://www.w3.org/2000/svg" xmlns:xlink="http://www.w3.org/1999/xlink" x="0px" y="0px"
	 viewBox="0 0 1920 1080" style="enable-background:new 0 0 1920 1080;" xml:space="preserve">
<style type="text/css">
	.st0{fill:#231F20;}
	.st1{fill:#FFFFFF;}
	.st2{fill:#00ADEE;}
	.st3{fill:#FFFFFF;stroke:#231F20;stroke-width:8;stroke-miterlimit:10;}
	.st4{fill:none;stroke:#231F20;stroke-width:5;stroke-miterlimit:10;}
	.st5{fill:#FFFFFF;stroke:#231F20;stroke-width:2;stroke-miterlimit:10;}
</style>
<g id="XMLID_2_">
	<path id="XMLID_56_" class="st0" d="M214.3,459.9c-9.9-3.2-20.8-6.6-43.9,2.4c-10.8,6.4-52.8,4.7-54.5,3.5c0,0-11.1-9.7,33.2-28.5
		c-24.3-5.4-63-4.2-79.2,23.1s-3.3,58.5,62.3,58c-9,6.6-18.4,17.4-18.4,17.4l23.1,9l-32.1,48.8c0,0,27.8,83.7,116.7,83.7
		s121.2-83.2,121.2-83.2l-33.2-50.5l19.3-7.8c0,0-11.1-15.3-18.6-17.4c18.2-0.7,71-2.1,69.1-38c-1.9-35.8-39.1-52.3-85.4-42.9
		c6.6,2.4,38.2,15.1,34.4,27.4c-10.1,2.8-24.3,2.6-44.8,0.7c-20.5-1.9-25.2-14.6-52.8-6.4C223.3,461.6,221.8,462.4,214.3,459.9z"/>
	<path id="XMLID_55_" class="st1" d="M156.1,473.4c0,0-43.4,2.1-50-3.8c-6.6-5.9,5.2-24.3,30.2-30.7c-16.3,0-63.7,4.5-60.8,39.9
		c2.6,20.3,29.7,25.7,75.7,24.3C154,485.6,156.1,473.4,156.1,473.4z"/>
	<path id="XMLID_54_" class="st1" d="M287.2,473.4c0,0,43.4,2.1,50-3.8c6.6-5.9-5.2-24.3-30.2-30.7c16.3,0,63.7,4.5,60.8,39.9
		c-2.6,20.3-29.7,25.7-75.7,24.3C289.3,485.6,287.2,473.4,287.2,473.4z"/>
	<polygon id="XMLID_53_" class="st2" points="169.8,469.6 159.9,472.2 157.3,488.5 163.5,496.5 	"/>
	<polygon id="XMLID_52_" class="st2" points="273.3,469.6 283.2,472.2 285.8,488.5 279.5,496.5 	"/>
	<path id="XMLID_51_" class="st2" d="M178,468l-11.8,49.3c0,0,25,7.1,38.7,26.2c6.6,0,9,0,9,0s5,2.9,7.7-9.7
		c1.3,2.8,3.6,10.1,6.9,10.1c3.3,0,9.4,0,9.4,0s15.1-20.2,38.9-26.1c-4.5-21.2-11.6-49.8-11.6-49.8s-6.8-3.3-14.6-4.7
		c-7.8-1.4-15,0.1-24.5,4.7c-6.6,3.2-21.9-4-21.9-4S199,458.5,178,468z"/>
	<path id="XMLID_50_" class="st2" d="M152.3,514.2c0,0-20.3,9.9-26.6,19.1c11.6-6.6,17-12,31.6-14.6
		C154.4,515.8,152.3,514.2,152.3,514.2z"/>
	<path id="XMLID_49_" class="st2" d="M291.2,514.2c0,0,20.3,9.9,26.6,19.1c-11.6-6.6-17-12-31.6-14.6
		C289.1,515.8,291.2,514.2,291.2,514.2z"/>
	<path id="XMLID_48_" class="st2" d="M163.5,530.7c0,0,20.4,9.4,28.9,22.6c1.2,7.8,1.2,22.9,1.2,22.9l5.7-24.1
		C199.2,552.1,189.9,535.1,163.5,530.7z"/>
	<path id="XMLID_47_" class="st2" d="M279.5,530.7c0,0-20.4,9.4-28.9,22.6c-1.2,7.8-1.2,22.9-1.2,22.9l-5.7-24.1
		C243.8,552.1,253.2,535.1,279.5,530.7z"/>
	<path id="XMLID_46_" class="st2" d="M205.6,547.9l-9,32.5c0,0,22.4-4.7,49.5,0c-6.4-24.4-8.7-32.5-8.7-32.5H205.6z"/>
	<path id="XMLID_45_" class="st1" d="M190.5,533.3c0,0-1.4,3.3,0,5.7c1.4,2.4,1.7,0,10.8,9C201.4,545.8,204,543.6,190.5,533.3z"/>
	<path id="XMLID_44_" class="st1" d="M252.6,533.3c0,0,1.4,3.3,0,5.7s-1.7,0-10.8,9C241.7,545.8,239.1,543.6,252.6,533.3z"/>
	<path id="XMLID_43_" class="st2" d="M203.7,584.2l5.4,11.1c0,0-9.2-8.7-11.3-10c-2.1-1.3-14.6,2.5-15.3,4.5s-3.2,8.6-1.1,11.4
		s5.3,5.4,8.5,7.3c-3.9,0-5.7,0-5.7,0l7.1,19.1c0,0,27.4-9.7,60.4,0c4.2-6.8,7.8-19.1,7.8-19.1l-6.2-0.5c0,0,8.4-3.3,8.5-7.8
		c0.1-4.5,1.7-10.4-2.3-12.3c-4-1.9-10.1-2.8-13.2-2.7c-3.1,0.1-12,10.7-12,10.7s3.5-11.1,5.2-11.8
		C241,583.5,215.5,580.4,203.7,584.2z"/>
	<path id="XMLID_42_" class="st2" d="M218.8,627.6c0,0-19.1,1.7-22.9,3.8c0,2.1,3.4,3.1,7.7,2.1C208,632.5,218.8,627.6,218.8,627.6z
		"/>
	<path id="XMLID_41_" class="st2" d="M143.5,550.5l7.7,3.8l3.7-2.5v3.5c0,0,10.7,8.8,22.3,27c-2.6,5.6-6.7,16-0.6,24.6
		c2,7.1,6.7,21.6,11,26.3c0,1.1-0.7,10.5,59.9,28.9c-3.9,0.9-53.1,6.2-85.7-17.8c-0.8-5.3-2.5-8.6-2.9-22.9
		c-1.4,7.8-2.8,18.7-2.8,18.7s-4.4-20.4-4.4-38.9c-2.2,7.9-4.8,30.1-4.8,30.8c-1.5-10.6-4-19.8-5.3-50.7
		c-4.1,16.7-7.2,38.6-7.2,38.6s-9.1-8.4-18.3-25.6C121.4,587,143.5,550.5,143.5,550.5z"/>
	<path id="XMLID_40_" class="st0" d="M206.7,599.3c0,0-7.9-8.5-10.7-8.6c-2.8-0.1-8.8,1.3-9.4,2.2s-1.3,2.7,2.4,3.7
		C192.5,597.5,206.7,599.3,206.7,599.3z"/>
	<path id="XMLID_39_" class="st0" d="M236.6,599.3c0,0,7.9-8.5,10.7-8.6c2.8-0.1,8.8,1.3,9.4,2.2s1.3,2.7-2.4,3.7
		C250.8,597.5,236.6,599.3,236.6,599.3z"/>
	<polygon id="XMLID_38_" class="st0" points="149.3,437.3 154.4,445.9 162.7,434.4 174.8,451.7 181.8,430.8 191.8,451.6 
		199.3,436.5 213.4,449.8 224.6,426.8 231.2,446.2 243.9,436.4 249.1,452.1 260.9,434.3 270.9,451.4 278.3,440.8 281.1,455.7 
		291.7,436.1 294,437.5 291.5,428.8 283.8,441.4 279.3,423.7 271.6,439 261.8,417.9 252.8,434.8 245.3,425.4 234,436.6 225.5,416.4 
		211.5,434.6 196.7,418.7 192.1,437.1 183.1,421.6 172,435.7 163,426.6 154.1,440.3 	"/>
	<g id="XMLID_35_">
		<path id="XMLID_37_" class="st3" d="M159.5,506.9v52C159.5,558.9,111.5,532.5,159.5,506.9z"/>
		<path id="XMLID_36_" class="st0" d="M153.1,514.2l4.1-2.7v42c0,0-13.2-7.3-15.8-18.9c0-2.4,3.4,12.1,14,15.9
			C155.5,538.6,156.7,512.5,153.1,514.2z"/>
	</g>
	<g id="XMLID_32_">
		<path id="XMLID_34_" class="st3" d="M283.2,506.9v52C283.2,558.9,331.1,532.5,283.2,506.9z"/>
		<path id="XMLID_33_" class="st0" d="M289.5,514.2l-4.1-2.7v42c0,0,13.2-7.3,15.8-18.9c0-2.4-3.4,12.1-14,15.9
			C287.1,538.6,285.9,512.5,289.5,514.2z"/>
	</g>
	<path id="XMLID_3_" class="st4" d="M157.7,558.9c0,0-11,31.7,6.8,50.2c17.8,18.5,9.7,31.8,9.7,31.8s-9.7,23.8,36.6,24.9"/>
</g>
<g>
	<path id="XMLID_5_" class="st2" d="M632.7,629.1L596,592.4V482.2h36.7v91.9l18.4,18.4h55.1V491.4L743,473v156.1H632.7z"/>
	<path id="XMLID_1_" class="st2" d="M886.4,482.2l36.7,36.7v110.2h-147V482.2H886.4z M886.4,537.4L867.9,519h-55.1v73.4h73.4
		L886.4,537.4L886.4,537.4z"/>
	<path id="XMLID_30_" class="st2" d="M956.3,482.2H993v146.9h-36.7V482.2z"/>
	<path id="XMLID_24_" class="st0" d="M1361.4,543c-0.9,1.4-2,2.8-3.1,4.3c-1.1,1.5-2.3,3-3.6,4.5s-2.2,2.4-2.8,2.8
		c0.6,0.6,1.5,1.6,2.8,2.9c1.2,1.4,2.4,2.8,3.6,4.2c1.2,1.5,2.3,2.8,3.2,4c0.9,1.2,1.4,2.1,1.4,2.5v39.2c0,2.2-0.5,4.4-1.5,6.9
		c-1,2.4-2.2,4.7-3.8,6.9c-1.5,2.2-3.3,4-5.3,5.3c-2.1,1.5-4,2.2-6,2.2h-144.7l-2.9-3.4V484l2.9-3.2h144.7c2,0,4,0.7,6,2.2
		c2.1,1.5,3.9,3.3,5.3,5.3c1.5,2.2,2.8,4.5,3.8,7c0.9,2.5,1.5,4.7,1.5,6.7v38.3C1362.8,540.8,1362.3,541.7,1361.4,543z
		 M1246.7,570.9l-2.3-2.5v-27.1l2.3-2.5h79.4v-26h-91v83.9h91V571L1246.7,570.9L1246.7,570.9z"/>
	<path id="XMLID_22_" class="st0" d="M1411.7,628.8c-2.2,0-4.2-0.7-6.2-2.2c-2-1.5-3.7-3.3-5.2-5.3c-1.5-2.2-2.8-4.4-3.8-6.9
		c-1-2.4-1.5-4.7-1.5-6.9V482.8l2.9-2.1h30.5l3.2,2.1v113.8h91.2V482.9l3.2-2.1h30.4l3.2,2.1v124.7c0,2.2-0.5,4.4-1.5,6.9
		c-1,2.4-2.2,4.7-3.8,6.9c-1.5,2.2-3.3,4-5.3,5.3c-2.1,1.5-4,2.2-6,2.2L1411.7,628.8L1411.7,628.8z"/>
	<path id="XMLID_20_" class="st0" d="M1591.8,625.3V482.9l2.9-2.1h30.5l3.2,2.1v110.6l2.1,3.2h91.7l2.2,3.2v25.8l-2.1,3.2h-127.7
		L1591.8,625.3z"/>
	<path id="XMLID_18_" class="st0" d="M1756.5,625.3V482.9l2.9-2.1h30.5l3.2,2.1v110.6l2.1,3.2h91.8l2.3,3.2v25.8l-2.1,3.2h-127.7
		L1756.5,625.3z"/>
	<path id="XMLID_15_" class="st2" d="M565.5,538.7v90.6h-35.1v-29.9h-67.8l-35.5,29.9h-55l129.7-107.1c7.9-6.4,22.7-18.3,63.6-49
		c0,24.9,0,55.1,0,65.3L565.5,538.7L565.5,538.7z M530.4,542.3l-37.9,32h37.9V542.3z"/>
	<circle id="XMLID_14_" class="st2" cx="1099.6" cy="555.7" r="59.5"/>
	<path id="XMLID_9_" class="st0" d="M1099.6,634.5c-21.8,0-40.3-7.7-55.6-23c-15.5-15.4-23.1-34-23.1-55.7c0-21.6,7.7-40.2,23-55.6
		c15.4-15.4,34-23.1,55.6-23.1c21.8,0,40.3,7.7,55.7,23.1c15.4,15.4,23.1,34,23.1,55.6c0,21.8-7.7,40.3-23.1,55.6
		C1139.9,626.7,1121.3,634.5,1099.6,634.5z M1099.6,496.2c-16.3,0-30.4,5.8-42.1,17.4c-11.7,11.6-17.5,25.6-17.5,42
		c0,16.6,5.8,30.7,17.5,42.3c11.7,11.6,25.6,17.4,42.1,17.4c16.3,0,30.4-5.8,42.1-17.4c11.7-11.6,17.5-25.7,17.5-42.3
		c0-16.3-5.8-30.4-17.5-42C1130,501.9,1116,496.2,1099.6,496.2z M1099.6,608.9c-14.6,0-27.1-5.2-37.5-15.6s-15.6-23-15.6-37.7
		c0-14.6,5.2-27.1,15.6-37.6c10.4-10.4,22.9-15.7,37.5-15.7c14.6,0,27.1,5.2,37.5,15.7c10.4,10.4,15.6,23,15.6,37.6
		c0,14.7-5.2,27.3-15.6,37.7S1114.2,608.9,1099.6,608.9z M1099.6,521.5c-9.4,0-17.4,3.4-24,10c-6.7,6.7-10,14.7-10,24
		c0,9.5,3.4,17.5,10,24.2c6.7,6.7,14.7,10,24,10c9.4,0,17.4-3.4,24-10c6.7-6.6,10-14.7,10-24.2c0-9.4-3.4-17.4-10-24
		C1116.9,524.9,1108.9,521.5,1099.6,521.5z"/>
	<circle id="XMLID_8_" class="st0" cx="1099.6" cy="555.7" r="29"/>
	<path id="XMLID_4_" class="st5" d="M1117.7,527.3c3.8-1.4,8.1-1.4,12,0.4l43.1,19.7c7.8,3.6,11.4,12.9,7.7,20.8
		c-3.6,7.9-12.9,11.4-20.8,7.7l-43.1-19.7c-5.8-2.6-9.1-8.3-9.1-14.3l-73.2-33.5c-1.5,1.4-3.4,2.5-5.2,3.2c-4,1.5-8.4,1.5-12.6-0.4
		c-8.2-3.8-11.9-13.6-8.1-21.8c1.9-4.1,5.2-7.1,9.2-8.5c4-1.5,8.4-1.5,12.6,0.4c4.1,1.9,7.1,5.2,8.6,9.2c0.7,1.9,1,3.8,1,5.8
		l73.4,33.5C1114.5,528.9,1116.1,528,1117.7,527.3z"/>
</g>
</svg>
